HIERARCHY
ROOT pelvis
{
  OFFSET 0 100 0
  CHANNELS 6 Xposition Yposition Zposition Zrotation Xrotation Yrotation
  JOINT pelvis_right_femur
  {
    OFFSET -10.78128 -3.44521 -0.5502486
    CHANNELS 3 Zrotation Xrotation Yrotation
    JOINT right_femur_tibia
    {
      OFFSET -0.8047443 -44.0398 -0.1307829
      CHANNELS 3 Zrotation Xrotation Yrotation
      JOINT right_tibia_foot
      {
        OFFSET 3.006224 -47.83518 -5
        CHANNELS 3 Zrotation Xrotation Yrotation
        End Site
        {
          OFFSET 0 -5 15
        }
      }
    }
  }
  JOINT pelvis_left_femur
  {
    OFFSET 10.78128 -3.44521 -0.5502486
    CHANNELS 3 Zrotation Xrotation Yrotation
    JOINT left_femur_tibia
    {
      OFFSET 0.8047443 -44.0398 -0.1307829
      CHANNELS 3 Zrotation Xrotation Yrotation
      JOINT left_tibia_foot
      {
        OFFSET -4.370144 -48.10324 -4.275266
        CHANNELS 3 Zrotation Xrotation Yrotation
        End Site
        {
          OFFSET 0 -5 15
        }
      }
    }
  }
  JOINT pelvis_spine1
  {
    OFFSET 0 6.468898 -3.129235
    CHANNELS 3 Zrotation Xrotation Yrotation
    JOINT spine1
    {
      OFFSET 0 23.15396 4.99043
      CHANNELS 3 Zrotation Xrotation Yrotation
      JOINT spine2
      {
        OFFSET 0 20.79997 -5.064912
        CHANNELS 3 Zrotation Xrotation Yrotation
        JOINT neck
        {
          OFFSET 0 14.38658 9.616178
          CHANNELS 3 Zrotation Xrotation Yrotation
          End Site
          {
            OFFSET 0 20 0
          }
        }
      }
      JOINT right_manubrium
      {
        OFFSET -5.722621 16.35077 3.967754
        CHANNELS 3 Zrotation Xrotation Yrotation
        JOINT right_clavicle
        {
          OFFSET -13.16364 1.694482 -4.693211
          CHANNELS 3 Zrotation Xrotation Yrotation
          JOINT right_humerus
          {
            OFFSET -28.5034 -0.3100689 -2.792744
            CHANNELS 3 Zrotation Xrotation Yrotation
            JOINT right_radius
            {
              OFFSET -25.15693 0.02248979 -1.271978
              CHANNELS 3 Zrotation Xrotation Yrotation
              End Site
              {
                OFFSET -15 0 0
              }
            }
          }
        }
      }
      JOINT left_manubrium
      {
        OFFSET 5.722621 16.35077 3.967754
        CHANNELS 3 Zrotation Xrotation Yrotation
        JOINT left_clavicle
        {
          OFFSET 13.16364 1.694482 -4.693211
          CHANNELS 3 Zrotation Xrotation Yrotation
          JOINT left_humerus
          {
            OFFSET 29.39168 -1.063119 -2.237045
            CHANNELS 3 Zrotation Xrotation Yrotation
            JOINT left_radius
            {
              OFFSET 24.59957 -0.9528479 0.9047498
              CHANNELS 3 Zrotation Xrotation Yrotation
              End Site
              {
                OFFSET 15 -0 -0
              }
            }
          }
        }
      }
    }
  }
}
MOTION
Frames: 15
Frame Time: 0.0416666666667
0 103.5113 0 1.306847 -2.969279 0.04464486 1.758754 -11.627 7.345673 -0 40.07197 -0 -5.977055 -17.01494 -3.67637 -6.56276 12.15998 -24.032 -0 5.922443 -0 1.346658 -18.15212 23.64043 -1.093786 -2.30774 4.886341 -0.865372 8.164991 -7.165344 1.862734 22.36051 7.833302 5.277723 -21.31844 8.821399 5.870548 -19.63589 9.580003 89.27154 36.8867 -23.84299 -0 0 17.79375 -7.325945 9.173662 1.346935 7.213646 -21.40628 -3.349811 -100.8535 43.07422 29.35734 0 0 -25.80246 -8.622669 18.2819 28.05941
0.1754298 103.7819 1.258218 0.4178168 -2.352016 -0.05589537 2.916901 -14.31224 8.171923 -0 42.22173 -0 -6.399398 -16.03027 -4.303915 -5.990088 11.85206 -23.85914 -0 6.648113 -0 -0.5227291 -19.43276 23.13249 -1.043363 -2.306965 4.963187 -0.8391107 8.195878 -7.179299 1.860004 22.29444 7.816873 5.297618 -21.37556 8.773137 5.937996 -19.58471 9.589849 89.14233 36.97442 -23.75683 -0 0 17.72361 -7.201524 9.242343 1.30092 7.340608 -21.52744 -3.241414 -100.7629 42.7905 29.21835 0 0 -25.77889 -8.231029 18.41091 27.71047
0.3605613 103.9411 2.669136 -0.1101875 -1.235198 -0.1359031 4.063699 -18.53422 8.433043 -0 39.82306 -0 -6.353504 -14.68141 -4.568895 -5.75733 11.76591 -23.03118 -0 6.508775 -0 -0.09670831 -20.83734 22.82258 -0.9588421 -1.96119 4.51765 -0.1042272 7.920546 -7.380753 1.554481 22.05726 8.331441 5.424873 -22.37834 8.976797 5.975132 -18.68261 9.906189 88.96232 36.87938 -23.76407 -0 0 16.04538 -7.724884 9.588689 2.18042 7.23033 -21.53534 -3.091317 -99.29491 41.2347 27.34021 0 0 -25.59746 -7.158175 17.70354 25.90666
0.5585531 103.8658 4.352349 -0.3804178 -0.2155964 -0.1777656 4.87009 -22.54334 8.179882 -0 35.7237 -0 -6.24194 -13.09921 -4.516234 -5.663115 11.94148 -22.01692 -0 6.155692 -0 0.8491672 -22.07109 22.37913 -0.8211166 -1.800396 4.316344 0.2230273 7.815149 -7.532253 1.436917 21.81017 8.568642 5.555799 -22.79069 9.000159 6.03248 -18.1996 10.05749 88.89212 36.71964 -23.89544 -0 0 15.28635 -7.980281 9.887722 2.554996 7.334237 -21.72215 -2.966119 -98.53168 40.36669 26.30806 0 0 -25.71442 -6.773167 17.42237 25.23988
0.7664427 103.5018 6.411894 -0.5049965 0.8081514 -0.1700662 5.486448 -26.47389 7.687903 -0 30.52283 -0 -6.063135 -11.24745 -4.2644 -5.648649 12.33388 -20.91425 -0 5.84385 -0 2.104744 -23.1513 21.87899 -0.6769195 -1.633906 4.112116 0.5619912 7.720591 -7.693566 1.319321 21.55212 8.801152 5.684266 -23.20868 9.017562 6.091208 -17.69733 10.2127 88.83065 36.5532 -24.04245 -0 0 14.47715 -8.24418 10.19932 2.941576 7.444732 -21.92844 -2.841009 -97.72943 39.4234 25.21585 0 0 -25.85722 -6.321837 17.12382 24.49771
0.9730632 102.8654 8.942215 -0.5781701 1.787152 -0.08813792 5.959264 -30.10187 7.025303 -0 25.15257 -0 -5.954732 -9.085269 -3.853586 -5.651609 12.93717 -19.79618 -0 5.916144 -0 3.256416 -23.95155 21.23659 -0.5435544 -1.486801 3.922238 0.8575379 7.643979 -7.845391 1.221786 21.31614 8.998713 5.797739 -23.55728 9.025565 6.138762 -17.24977 10.34811 88.80359 36.37592 -24.20928 -0 0 13.75793 -8.493846 10.48207 3.284384 7.544338 -22.12338 -2.742806 -97.0167 38.58623 24.23421 0 0 -26.0252 -5.964768 16.84645 23.88596
1.162688 102.0379 12.02864 -0.6926259 2.705865 0.1004414 6.365352 -33.20551 6.297693 -0 20.37254 -0 -5.987562 -6.711012 -3.32743 -5.613136 13.7078 -18.74581 -0 6.687543 -0 3.898462 -24.32561 20.33402 -0.4391242 -1.334376 3.722006 1.163319 7.573231 -7.988345 1.11984 21.12037 9.180046 5.87817 -23.90705 9.042142 6.168623 -16.81271 10.48569 88.79077 36.20879 -24.35512 -0 0 13.00062 -8.762851 10.72534 3.657628 7.58304 -22.26639 -2.680122 -96.29824 37.752 23.25967 0 0 -26.1583 -5.572187 16.52458 23.21282
1.318721 101.1549 15.74717 -0.9299922 3.525941 0.4267405 6.764584 -35.46101 5.577332 -0 16.79066 -0 -6.188819 -4.337993 -2.721205 -5.470336 14.56357 -17.81378 -0 8.48475 -0 3.579204 -24.06884 18.98096 -0.3811048 -1.172721 3.503507 1.485615 7.506126 -8.115667 1.009582 20.98961 9.33483 5.906167 -24.25646 9.067349 6.171579 -16.39409 10.62937 88.7882 36.05052 -24.45447 -0 0 12.20103 -9.067061 10.90562 4.086135 7.519402 -22.31786 -2.674175 -95.5714 36.94388 22.30666 0 0 -26.21881 -5.16731 16.1363 22.48695
1.430672 100.3932 20.15161 -1.354155 4.190235 0.9013456 7.224823 -36.46884 4.963196 -0 14.82418 -0 -6.515266 -2.329073 -2.107274 -5.160126 15.34072 -17.00872 -0 11.65092 -0 1.931826 -22.9164 17.02498 -0.3908065 -0.997303 3.265131 1.835433 7.444063 -8.218928 0.8849189 20.95036 9.446382 5.85656 -24.60744 9.094152 6.14124 -16.00123 10.78702 88.77108 35.90612 -24.45469 -0 0 11.35134 -9.425867 10.99982 4.606103 7.310292 -22.23581 -2.738943 -94.82257 36.15209 21.38097 0 0 -26.1434 -4.736348 15.66176 21.6743
1.503252 99.9429 25.24949 -1.982144 4.607397 1.483175 7.811341 -35.84044 4.578057 -0 14.5756 -0 -6.860385 -1.135732 -1.6278 -4.64279 15.75914 -16.23765 -0 16.52497 -0 -1.066102 -20.58494 14.51114 -0.4938175 -0.8111488 3.015623 2.212229 7.390652 -8.285264 0.7443771 21.03102 9.484723 5.701053 -24.94078 9.101814 6.073622 -15.65881 10.96561 88.69114 35.77304 -24.27478 -0 0 10.49524 -9.863793 10.98403 5.252037 6.917015 -21.97508 -2.878666 -94.06569 35.38285 20.5275 0 0 -25.8401 -4.301754 15.10439 20.78523
1.562301 99.95936 30.96626 -2.735587 4.646735 2.044959 8.536631 -33.38565 4.524936 -0 15.67427 -0 -7.115513 -1.132887 -1.484062 -3.948607 15.40897 -15.2749 -0 23.34402 -0 -4.780719 -16.96385 11.84184 -0.7167223 -0.6241749 2.780598 2.606769 7.352137 -8.297659 0.5898142 21.25309 9.411052 5.414171 -25.22406 9.054225 5.971292 -15.40373 11.17375 88.46178 35.64782 -23.79313 -0 0 9.722845 -10.41488 10.84465 6.059911 6.319051 -21.50005 -3.071769 -93.33533 34.62242 19.81839 0 0 -25.18269 -3.884369 14.49635 19.83464
1.646467 100.5028 37.11506 -3.394499 4.158484 2.372172 9.25328 -29.31569 4.759137 -0 17.22252 -0 -7.294251 -2.352169 -1.813378 -3.222039 13.81878 -13.85578 -0 32.04785 -0 -7.930073 -12.45264 9.69381 -1.073522 -0.4525255 2.60773 2.995156 7.337986 -8.23761 0.4298365 21.61505 9.186694 4.98853 -25.41014 8.901595 5.846594 -15.28125 11.41865 87.96713 35.52662 -22.86885 -0 0 9.170074 -11.12134 10.59616 7.052305 5.535759 -20.81054 -3.262737 -92.6895 33.83125 19.34834 0 0 -24.04827 -3.502499 13.90398 18.85498
1.781021 101.5059 43.4097 -3.625958 3.051078 2.256529 9.582969 -24.21839 4.970721 -0 18.08325 -0 -7.5674 -4.323795 -2.479951 -2.702189 10.63454 -11.98539 -0 42.01183 -0 -9.300173 -8.096732 8.625594 -1.542003 -0.3118773 2.566373 3.33398 7.365005 -8.091421 0.2822941 22.07261 8.793135 4.455864 -25.44421 8.595478 5.721947 -15.33057 11.69919 87.10831 35.41242 -21.40609 -0 0 8.97553 -12.0236 10.30264 8.212852 4.64663 -19.97708 -3.373636 -92.19051 32.94256 19.20059 0 0 -22.40835 -3.151577 13.40944 17.89583
1.956175 102.8082 49.55604 -3.15257 1.412115 1.67657 9.058002 -18.64765 4.704079 -0 17.49507 -0 -7.99457 -6.307673 -3.00839 -2.610511 5.84247 -10.17433 -0 51.86582 -0 -8.835677 -5.07116 8.757862 -2.050624 -0.209941 2.728854 3.559903 7.458973 -7.856115 0.1727101 22.53827 8.25545 3.895628 -25.27718 8.121172 5.621157 -15.56997 11.99689 85.87827 35.31712 -19.4396 -0 0 9.218464 -13.14518 10.07544 9.465427 3.782557 -19.14338 -3.346873 -91.87718 31.90687 19.40765 0 0 -20.41808 -2.807873 13.06755 17.03294
2.136369 104.2235 55.38206 -1.98787 -0.4410109 0.8749141 7.556273 -12.75454 3.832928 -0 15.52519 -0 -8.211427 -7.809253 -2.932994 -2.963911 -0.1434357 -9.024337 -0 59.61859 -0 -7.77543 -3.837758 9.82322 -2.508046 -0.1464754 3.133251 3.607882 7.642937 -7.537525 0.1231181 22.91995 7.649381 3.407919 -24.89002 7.529142 5.554462 -15.99245 12.27801 84.38884 35.24961 -17.1453 -0 0 9.889341 -14.48525 10.02144 10.69735 3.071131 -18.45556 -3.185406 -91.75266 30.75328 19.94238 0 0 -18.36928 -2.455744 12.86677 16.34792
